:SAMPLES-PER-SECOND 30
:FULLY-SPECIFIED
:DEGREES
168
root  -54.9989 40.3869 24.9309 176.971 -5.32635 178.236
RightUpLeg  -4.89009 -11.9564 -6.69952
RightLeg  9.82851 -0.871539 2.62173
RightFoot  -1.69296 -0.179449 1.99144
RightToes  -1.33073e-015 0 -3.6325e-017
Spine  16.035 -1.69261 7.22179
Spine1  13.6845 -1.0847 0.774674
HEad  0.738876 -16.8975 2.49454
LeftShoulder1  0.971718 0.621529 -27.5846
LeftArm  -9.80213 -7.56576 -44.0062
LeftForeArm  8.90219 -62.6856 -21.6725
LeftHand  -0.0878148 1.76035 2.5511
RightShoulder  -0.0513127 -3.63855 25.5749
RightArm  -10.6161 11.0761 40.9205
RightForeArm  10.0868 69.8411 32.5333
RightHand  -0.0573514 3.86868 -0.978193
LeftUpLeg  -7.7648 0.303313 -4.19188
LeftLeg  13.7207 -2.50675 -0.378836
LeftFoot  -7.11928 0.11096 -4.9671
LeftToes  -1.93726e-010 2.42366e-011 2.16268e-013
169
root  -54.6243 40.407 24.7932 176.534 -4.02122 178.849
RightUpLeg  -4.33266 -12.5512 -5.52331
RightLeg  9.79135 0.954022 2.94158
RightFoot  -2.68738 -0.225604 2.72628
RightToes  -1.33073e-015 0 -3.6325e-017
Spine  15.5021 -1.11121 5.04853
Spine1  13.8103 -1.14987 1.86546
HEad  1.41975 -17.7291 3.1239
LeftShoulder1  0.893563 0.84653 -27.4934
LeftArm  -11.0901 -6.11426 -43.7395
LeftForeArm  10.8289 -64.1974 -23.1671
LeftHand  -0.0739452 1.74528 2.09457
RightShoulder  -0.0726195 -3.69967 26.0105
RightArm  -9.27512 11.8188 40.7577
RightForeArm  7.94873 69.3666 31.8398
RightHand  -0.110599 4.21067 -1.61915
LeftUpLeg  -6.72322 1.20422 -4.09252
LeftLeg  12.0924 -2.15499 -0.0835804
LeftFoot  -2.35399 -0.492593 7.09255
LeftToes  -1.93726e-010 2.42366e-011 2.16268e-013
170
root  -54.2529 40.2542 24.7444 176.049 -2.14135 179.138
RightUpLeg  -5.815 -17.5217 -4.40541
RightLeg  13.6508 7.74106 3.66677
RightFoot  -4.47903 -0.218762 3.1577
RightToes  -1.33073e-015 0 -3.6325e-017
Spine  15.6744 -0.4933 2.12687
Spine1  13.5901 -1.18484 2.74083
HEad  1.20905 -17.3708 4.35198
LeftShoulder1  0.80339 1.11169 -27.446
LeftArm  -12.572 -4.40865 -42.8582
LeftForeArm  13.0909 -66.3334 -25.6835
LeftHand  -0.0876309 1.78047 2.55475
RightShoulder  -0.162247 -3.96838 26.7505
RightArm  -7.34033 13.4848 41.0698
RightForeArm  5.57115 68.7297 30.8782
RightHand  -0.167511 3.98918 -2.33967
LeftUpLeg  -7.08381 2.71571 -2.75356
LeftLeg  14.0466 -1.63471 0.00410619
LeftFoot  -3.2422 -0.315746 4.70466
LeftToes  -1.93726e-010 2.42366e-011 2.16268e-013
171
root  -53.8279 40.014 24.7698 175.641 -0.794321 178.372
RightUpLeg  -9.42318 -22.7642 -4.4892
RightLeg  21.6063 14.6609 5.92217
RightFoot  -6.19905 -0.289228 5.3851
RightToes  -1.33073e-015 0 -3.6325e-017
Spine  15.9854 0.217452 -2.29923
Spine1  13.7637 -1.65733 4.77611
HEad  0.161136 -17.7007 5.85086
LeftShoulder1  0.751299 1.25952 -27.3301
LeftArm  -14.2798 -3.49426 -41.5434
LeftForeArm  14.6963 -68.0403 -28.1822
LeftHand  -0.0969876 1.82379 2.88978
RightShoulder  -0.0205445 -3.54076 25.7054
RightArm  -6.70863 13.7626 43.1529
RightForeArm  6.24616 68.8332 30.9922
RightHand  -0.171558 3.96624 -2.3723
LeftUpLeg  -7.73344 5.71716 -2.13034
LeftLeg  16.3767 -3.63912 -1.18899
LeftFoot  -4.41547 -0.173381 3.32575
LeftToes  -1.93726e-010 2.42366e-011 2.16268e-013
172
root  -53.5136 39.8395 24.7741 175.485 0.524166 177.879
RightUpLeg  -12.5574 -23.9697 -5.58647
RightLeg  28.5866 18.0601 10.1788
RightFoot  -6.60415 -0.564683 12.892
RightToes  -1.33073e-015 0 -3.6325e-017
Spine  15.8522 0.375467 -3.90019
Spine1  13.929 -1.47779 3.82454
HEad  -0.687027 -18.7458 6.78992
LeftShoulder1  0.692381 1.42788 -27.205
LeftArm  -14.9706 -3.04533 -40.261
LeftForeArm  16.5607 -69.3919 -30.4487
LeftHand  -0.0890394 2.05333 2.77123
RightShoulder  0.0631281 -3.27677 25.3679
RightArm  -6.12679 13.7524 44.1785
RightForeArm  7.29826 69.1823 31.5458
RightHand  -0.116915 3.0083 -1.82473
LeftUpLeg  -8.51121 6.48155 -1.92769
LeftLeg  18.3923 -3.16124 -1.20085
LeftFoot  -5.16623 -0.140968 3.19518
LeftToes  -1.93726e-010 2.42366e-011 2.16268e-013
173
root  -53.1931 39.6725 24.7593 174.702 1.73705 177.664
RightUpLeg  -14.1269 -24.261 -7.11633
RightLeg  34.3376 21.3505 14.7979
RightFoot  -7.6778 -0.822339 23.4588
RightToes  -1.33073e-015 0 -3.6325e-017
Spine  16.3546 0.691429 -5.00682
Spine1  13.8241 -1.15636 3.01096
HEad  -0.968135 -19.5381 6.75374
LeftShoulder1  0.653347 1.54046 -27.1178
LeftArm  -15.2963 -2.72078 -39.6257
LeftForeArm  17.6915 -70.3314 -32.3005
LeftHand  -0.0985286 2.16166 3.20003
RightShoulder  -0.00711273 -3.49872 25.681
RightArm  -4.97853 14.4489 44.2437
RightForeArm  5.32508 68.9259 31.3173
RightHand  -0.237373 3.57869 -3.34071
LeftUpLeg  -8.3979 7.487 -1.33696
LeftLeg  20.134 -2.80645 -1.23076
LeftFoot  -6.13334 -0.0972247 2.93902
LeftToes  -1.93726e-010 2.42366e-011 2.16268e-013
